# xmcd
#
# Track frame offsets:
#	150
#	1825
#	19795
#	35846
#	53070
#	70609
#	87149
#	104192
#	121350
#	136484
#	151869
#	166403
#	181943
#	197167
#	210788
#	224261
#
# Disc length: 3322 seconds
#
# Revision: 1
# Processed by: cddbd v1.5.2PL0 Copyright (c) Steve Scherf et al.
# Submitted via: audiograbber 1.83.01
#
DISCID=d50cf810
DTITLE=GEREBA E CONVIDADOS - UMA HISTÓRIA DE LUIZ
DYEAR=1900
DGENRE=MPB
TTITLE0=LUIZ GONZAGA E INGRA LIBERATO - ABERTURA
TTITLE1=GILBERTO GIL - TREZE DE DEZEMBRO
TTITLE2=ELBA RAMALHO - PASSEANDO EM PARIS
TTITLE3=RAIMUNDO FAGNER - NUMA SERENATA
TTITLE4=DOMINGUINHO E MACIEL MELO - SANFONA DOURADA
TTITLE5=JUSSARA SILVEIRA - SETE LUAS DO GONZAGA
TTITLE6=JORGE VERCILLO - LYGIA
TTITLE7=ZECA BALEIRO - MARA
TTITLE8=NÁ OZZETTI - LUAR DO NORDESTE
TTITLE9=JAIR RODRIGUES - MARIETA
TTITLE10=LIRINHA - VERÔNICA
TTITLE11=FLÁVIO VENTURINI - WANDA
TTITLE12=ADELMÁRIO COELHO E SANTANA - PISA DE MANSINHO
TTITLE13=GEREBA BARRETO - GALOPE ALÉM MAR
TTITLE14=LENINE E MARGARETH MENEZES - REI BANTU
TTITLE15=GERBA B. E SINFONIETA DOS DEV. DE N. S. DOS PRAZERES - SUITE LUA GONZA
TTITLE15=GA
EXTD=
EXTT0=
EXTT1=
EXTT2=
EXTT3=
EXTT4=
EXTT5=
EXTT6=
EXTT7=
EXTT8=
EXTT9=
EXTT10=
EXTT11=
EXTT12=
EXTT13=
EXTT14=
EXTT15=
PLAYORDER=
